<!-- Generated by IcoMoon.io -->
<svg version="1.1" xmlns="http://www.w3.org/2000/svg" width="1024" height="1024" viewBox="0 0 1024 1024">
<title></title>
<g id="icomoon-ignore">
</g>
<path fill="#000" d="M442.304 77.216l240.864 241.152 2.56-2.56c5.046-4.938 11.802-7.738 18.861-7.816s13.875 2.573 19.027 7.4l27.936 27.936c9.76 9.76 10.080 24.64 2.656 35.008l-0.128 0.224-4.576 6.144 197.12 197.12c17.6 17.6 17.6 45.76 0 63.36l-301.76 301.76c-17.6 17.6-45.76 17.6-63.36 0l-142.304-142.304c-2.362 2.979-5.331 5.424-8.707 7.174s-7.082 2.765-10.88 2.979c-3.795 0.214-7.594-0.378-11.146-1.734-3.552-1.36-6.774-3.453-9.459-6.147l-83.2-83.2c-4.938-5.043-7.738-11.802-7.816-18.861s2.573-13.875 7.4-19.027l0.192-0.224 2.464-2.432-240.864-240.864c-17.6-17.6-17.6-45.76 0-63.36l301.76-301.76c17.6-17.6 45.76-17.6 63.36 0v0.032zM652.928 348.576l-56.192-56.16c-1.766-1.821-3.878-3.269-6.214-4.258s-4.848-1.498-7.386-1.498c-2.538 0-5.046 0.509-7.382 1.498s-4.451 2.437-6.218 4.258l-114.56 114.56c-1.814 1.802-3.254 3.946-4.237 6.307-0.986 2.362-1.491 4.896-1.491 7.453s0.506 5.091 1.491 7.453c0.982 2.362 2.422 4.506 4.237 6.307l55.968 55.968 19.52-19.52-50.080-50.080 102.72-103.040 50.208 50.368 19.616-19.616zM490.496 510.88l-56.128-56.128c-1.766-1.821-3.878-3.27-6.214-4.259s-4.848-1.498-7.386-1.498c-2.538 0-5.046 0.509-7.382 1.498s-4.451 2.438-6.218 4.259l-114.88 114.88c-7.68 7.36-7.68 19.52 0 27.2l56.064 56.064 19.712-19.712-50.24-50.048 103.040-102.72 50.048 50.016 19.584-19.552zM282.304 262.176l114.56 114.56c7.68 7.68 19.84 7.68 27.2-0.32l114.56-114.56c1.821-1.733 3.27-3.819 4.259-6.129 0.992-2.31 1.501-4.797 1.501-7.311h0.32c0-4.8-1.92-9.92-5.76-13.76l-114.56-114.56c-1.798-1.819-3.942-3.263-6.304-4.248s-4.896-1.493-7.456-1.493c-2.56 0-5.091 0.508-7.456 1.493-2.362 0.986-4.502 2.429-6.304 4.248l-114.56 114.88c-7.68 7.36-7.68 19.52 0 27.2zM120.064 424.416l114.56 114.56c7.68 7.68 19.84 7.68 27.2 0l114.56-114.56c1.859-1.77 3.331-3.907 4.323-6.275s1.482-4.918 1.437-7.485h0.32c0-5.12-1.92-9.92-5.76-13.76l-114.56-114.56c-1.766-1.821-3.88-3.269-6.216-4.258s-4.847-1.498-7.384-1.498c-2.537 0-5.048 0.509-7.384 1.498s-4.45 2.437-6.216 4.258l-114.88 114.88c-7.68 7.36-7.68 19.52 0 27.2zM341.92 704.544l75.584 75.616 308.352-417.28-20.96-20.96-362.976 362.624z"></path>
<path fill="#fd9222" d="M442.304 77.216l240.864 241.152 2.56-2.56c5.046-4.938 11.802-7.738 18.861-7.816s13.875 2.573 19.027 7.4l27.936 27.936c9.76 9.76 10.080 24.64 2.656 35.008l-0.128 0.224-4.576 6.144 197.12 197.12c17.6 17.6 17.6 45.76 0 63.36l-301.76 301.76c-17.6 17.6-45.76 17.6-63.36 0l-142.304-142.304c-2.362 2.979-5.331 5.424-8.707 7.174s-7.082 2.765-10.88 2.979c-3.795 0.214-7.594-0.378-11.146-1.734-3.552-1.36-6.774-3.453-9.459-6.147l-83.2-83.2c-4.938-5.043-7.738-11.802-7.816-18.861s2.573-13.875 7.4-19.027l0.192-0.224 2.464-2.432-240.864-240.864c-17.6-17.6-17.6-45.76 0-63.36l301.76-301.76c17.6-17.6 45.76-17.6 63.36 0v0.032zM652.928 348.576l-56.192-56.16c-1.766-1.821-3.878-3.269-6.214-4.258s-4.848-1.498-7.386-1.498c-2.538 0-5.046 0.509-7.382 1.498s-4.451 2.437-6.218 4.258l-114.56 114.56c-1.814 1.802-3.254 3.946-4.237 6.307-0.986 2.362-1.491 4.896-1.491 7.453s0.506 5.091 1.491 7.453c0.982 2.362 2.422 4.506 4.237 6.307l55.968 55.968 19.52-19.52-50.080-50.080 102.72-103.040 50.208 50.368 19.616-19.616zM490.496 510.88l-56.128-56.128c-1.766-1.821-3.878-3.27-6.214-4.259s-4.848-1.498-7.386-1.498c-2.538 0-5.046 0.509-7.382 1.498s-4.451 2.438-6.218 4.259l-114.88 114.88c-7.68 7.36-7.68 19.52 0 27.2l56.064 56.064 19.712-19.712-50.24-50.048 103.040-102.72 50.048 50.016 19.584-19.552zM282.304 262.176l114.56 114.56c7.68 7.68 19.84 7.68 27.2-0.32l114.56-114.56c1.821-1.733 3.27-3.819 4.259-6.129 0.992-2.31 1.501-4.797 1.501-7.311h0.32c0-4.8-1.92-9.92-5.76-13.76l-114.56-114.56c-1.798-1.819-3.942-3.263-6.304-4.248s-4.896-1.493-7.456-1.493c-2.56 0-5.091 0.508-7.456 1.493-2.362 0.986-4.502 2.429-6.304 4.248l-114.56 114.88c-7.68 7.36-7.68 19.52 0 27.2zM120.064 424.416l114.56 114.56c7.68 7.68 19.84 7.68 27.2 0l114.56-114.56c1.859-1.77 3.331-3.907 4.323-6.275s1.482-4.918 1.437-7.485h0.32c0-5.12-1.92-9.92-5.76-13.76l-114.56-114.56c-1.766-1.821-3.88-3.269-6.216-4.258s-4.847-1.498-7.384-1.498c-2.537 0-5.048 0.509-7.384 1.498s-4.45 2.437-6.216 4.258l-114.88 114.88c-7.68 7.36-7.68 19.52 0 27.2zM341.92 704.544l75.584 75.616 308.352-417.28-20.96-20.96-362.976 362.624z"></path>
</svg>
