<svg aria-hidden="true" style="position: absolute; width: 0; height: 0; overflow: hidden;" version="1.1" xmlns="http://www.w3.org/2000/svg" xmlns:xlink="http://www.w3.org/1999/xlink">
<defs>
<!--$$$$$$$$$$  HEADER  $$$$$$$$$$$$-->
<symbol id="header-chocolate" viewBox="0 0 32 32">
<path fill="" style="" d="M3.944 20.076l10.777-17.424 0.64-0.674 8.236 5.491 0.056 3.314 2.010 3.28-8.88 14.077-12.839-8.063z"></path>
<path fill="none" stroke="#fd9222" style="stroke: var(--color2, #fd9222)" stroke-linejoin="round" stroke-linecap="round" stroke-miterlimit="4" stroke-width="2.6667" d="M21.635 23.88l-14.185-8.864M11.361 8.599l14.185 8.864M10.63 25.864l11.736-19.25M27.176 14.789c-3.040-1.899-4.234-3.384-2.278-6.592l-9.626-6.015-11.736 19.25 14.186 8.864 9.454-15.507z"></path>
</symbol>
<symbol id="menu-open" viewBox="0 0 48 32">
<path stroke-linejoin="round" stroke-linecap="round" stroke-miterlimit="4" stroke-width="4" d="M3 16h42M3 2h42M3 30h42"></path>
</symbol>

<symbol id="icon-instagram" viewBox="0 0 32 32">
<path stroke-linejoin="round" stroke-linecap="round" stroke-miterlimit="4" stroke-width="2.6667" d="M22.667 2.667h-13.333c-3.682 0-6.667 2.985-6.667 6.667v0 13.333c0 3.682 2.985 6.667 6.667 6.667v0h13.333c3.682 0 6.667-2.985 6.667-6.667v0-13.333c0-3.682-2.985-6.667-6.667-6.667v0z"></path>
<path stroke-linejoin="round" stroke-linecap="round" stroke-miterlimit="4" stroke-width="2.6667" d="M21.333 15.16c0.037 0.235 0.058 0.506 0.058 0.782 0 2.946-2.388 5.334-5.334 5.334-2.67 0-4.881-1.962-5.272-4.522l-0.004-0.030c-0.037-0.235-0.058-0.506-0.058-0.782 0-2.946 2.388-5.334 5.334-5.334 2.67 0 4.881 1.962 5.272 4.522l0.004 0.030z"></path>
<path stroke-linejoin="round" stroke-linecap="round" stroke-miterlimit="4" stroke-width="2.6667" d="M21.333 15.16c0.037 0.235 0.058 0.506 0.058 0.782 0 2.946-2.388 5.334-5.334 5.334-2.67 0-4.881-1.962-5.272-4.522l-0.004-0.030c-0.037-0.235-0.058-0.506-0.058-0.782 0-2.946 2.388-5.334 5.334-5.334 2.67 0 4.881 1.962 5.272 4.522l0.004 0.030zM23.333 8.667h0.013M23.333 8.667h0.013"></path>
</symbol>
<symbol id="icon-twitter" viewBox="0 0 32 32">
<path stroke-linejoin="round" stroke-linecap="round" stroke-miterlimit="4" stroke-width="2.6667" d="M30.667 4c-1.2 0.856-2.591 1.552-4.084 2.013l-0.103 0.027c-1.101-1.261-2.712-2.053-4.507-2.053-3.299 0-5.973 2.674-5.973 5.973 0 0.028 0 0.056 0.001 0.084l-0-0.004v1.333c-0.109 0.003-0.238 0.005-0.367 0.005-2.331 0-4.53-0.561-6.471-1.555l0.080 0.037c-2.093-1.053-4.56-3.563-5.908-5.48 0 0-4.667 12.953 7.333 18.287-2.442 1.677-5.462 2.679-8.716 2.679-0.217 0-0.433-0.004-0.648-0.013l0.031 0.001c12 6.667 26.667 0 26.667-15.333 0-0.372-0.037-0.741-0.107-1.107 1.323-1.305 2.293-2.963 2.758-4.822l0.015-0.071z"></path>
</symbol>

<symbol id="icon-menu-ham" viewBox="0 0 47 32">
<path stroke-linejoin="round" stroke-linecap="round" stroke-miterlimit="4" stroke-width="4.3636" d="M1.961 29.154h42.965M1.961 15.615h42.965M1.961 2.077h42.965"></path>
</symbol>

<symbol id="icon-menu-close" viewBox="0 0 32 32">
<path fill="none" stroke="#fff" style="stroke: var(--color1, #fff)" stroke-linejoin="round" stroke-linecap="round" stroke-miterlimit="4" stroke-width="2" d="M22.667 9.333l-13.334 13.334M9.333 9.333l13.334 13.334"></path>
</symbol>
<!-- $$$$$$$$$$$$$$$  HERO  $$$$$$$$$$$$$$$$ -->
<symbol id="icon-scroll" viewBox="0 0 56 32">
<path fill="#FD9222" style="fill: var(--color2, ##FD9222)" d="M30.604 21.132c-0.665 0.669-1.585 1.083-2.602 1.083s-1.937-0.414-2.602-1.082l-0-0-16.8-16.828c-0.672-0.725-1.629-1.177-2.692-1.177-2.026 0-3.668 1.642-3.668 3.668 0 1.055 0.445 2.006 1.158 2.675l0.002 0.002 16.828 16.832c1.99 1.988 4.738 3.218 7.774 3.218s5.784-1.23 7.774-3.218l16.828-16.832c0.624-0.656 1.008-1.546 1.008-2.526 0-2.026-1.642-3.668-3.668-3.668-0.988 0-1.886 0.391-2.545 1.027l0.001-0.001-16.8 16.828z"></path>
</symbol>
<!-- $$$$$$$$$$$$  ADVANTAGES  $$$$$$$$$$$$$$$$$ -->
<symbol id="choco" viewBox="0 0 32 32">
<path fill="#000" style="fill: var(--color2, #000)" d="M13.822 2.413l7.527 7.536 0.080-0.080c0.158-0.154 0.369-0.242 0.589-0.244s0.434 0.080 0.595 0.231l0.873 0.873c0.305 0.305 0.315 0.77 0.083 1.094l-0.004 0.007-0.143 0.192 6.16 6.16c0.55 0.55 0.55 1.43 0 1.98l-9.43 9.43c-0.55 0.55-1.43 0.55-1.98 0l-4.447-4.447c-0.074 0.093-0.167 0.169-0.272 0.224s-0.221 0.086-0.34 0.093c-0.119 0.007-0.237-0.012-0.348-0.054s-0.212-0.108-0.296-0.192l-2.6-2.6c-0.154-0.158-0.242-0.369-0.244-0.589s0.080-0.434 0.231-0.595l0.006-0.007 0.077-0.076-7.527-7.527c-0.55-0.55-0.55-1.43 0-1.98l9.43-9.43c0.55-0.55 1.43-0.55 1.98 0v0.001zM20.404 10.893l-1.756-1.755c-0.055-0.057-0.121-0.102-0.194-0.133s-0.151-0.047-0.231-0.047c-0.079 0-0.158 0.016-0.231 0.047s-0.139 0.076-0.194 0.133l-3.58 3.58c-0.057 0.056-0.102 0.123-0.132 0.197s-0.047 0.153-0.047 0.233 0.016 0.159 0.047 0.233c0.031 0.074 0.076 0.141 0.132 0.197l1.749 1.749 0.61-0.61-1.565-1.565 3.21-3.22 1.569 1.574 0.613-0.613zM15.328 15.965l-1.754-1.754c-0.055-0.057-0.121-0.102-0.194-0.133s-0.152-0.047-0.231-0.047c-0.079 0-0.158 0.016-0.231 0.047s-0.139 0.076-0.194 0.133l-3.59 3.59c-0.24 0.23-0.24 0.61 0 0.85l1.752 1.752 0.616-0.616-1.57-1.564 3.22-3.21 1.564 1.563 0.612-0.611zM8.822 8.193l3.58 3.58c0.24 0.24 0.62 0.24 0.85-0.010l3.58-3.58c0.057-0.054 0.102-0.119 0.133-0.192s0.047-0.15 0.047-0.228h0.010c0-0.15-0.060-0.31-0.18-0.43l-3.58-3.58c-0.056-0.057-0.123-0.102-0.197-0.133s-0.153-0.047-0.233-0.047c-0.080 0-0.159 0.016-0.233 0.047s-0.141 0.076-0.197 0.133l-3.58 3.59c-0.24 0.23-0.24 0.61 0 0.85zM3.752 13.263l3.58 3.58c0.24 0.24 0.62 0.24 0.85 0l3.58-3.58c0.058-0.055 0.104-0.122 0.135-0.196s0.046-0.154 0.045-0.234h0.010c0-0.16-0.060-0.31-0.18-0.43l-3.58-3.58c-0.055-0.057-0.121-0.102-0.194-0.133s-0.151-0.047-0.231-0.047c-0.079 0-0.158 0.016-0.231 0.047s-0.139 0.076-0.194 0.133l-3.59 3.59c-0.24 0.23-0.24 0.61 0 0.85zM10.685 22.017l2.362 2.363 9.636-13.040-0.655-0.655-11.343 11.332z"></path>
<path fill="#fd9222" style="fill: var(--color1, #fd9222)" d="M13.822 2.413l7.527 7.536 0.080-0.080c0.158-0.154 0.369-0.242 0.589-0.244s0.434 0.080 0.595 0.231l0.873 0.873c0.305 0.305 0.315 0.77 0.083 1.094l-0.004 0.007-0.143 0.192 6.16 6.16c0.55 0.55 0.55 1.43 0 1.98l-9.43 9.43c-0.55 0.55-1.43 0.55-1.98 0l-4.447-4.447c-0.074 0.093-0.167 0.169-0.272 0.224s-0.221 0.086-0.34 0.093c-0.119 0.007-0.237-0.012-0.348-0.054s-0.212-0.108-0.296-0.192l-2.6-2.6c-0.154-0.158-0.242-0.369-0.244-0.589s0.080-0.434 0.231-0.595l0.006-0.007 0.077-0.076-7.527-7.527c-0.55-0.55-0.55-1.43 0-1.98l9.43-9.43c0.55-0.55 1.43-0.55 1.98 0v0.001zM20.404 10.893l-1.756-1.755c-0.055-0.057-0.121-0.102-0.194-0.133s-0.151-0.047-0.231-0.047c-0.079 0-0.158 0.016-0.231 0.047s-0.139 0.076-0.194 0.133l-3.58 3.58c-0.057 0.056-0.102 0.123-0.132 0.197s-0.047 0.153-0.047 0.233 0.016 0.159 0.047 0.233c0.031 0.074 0.076 0.141 0.132 0.197l1.749 1.749 0.61-0.61-1.565-1.565 3.21-3.22 1.569 1.574 0.613-0.613zM15.328 15.965l-1.754-1.754c-0.055-0.057-0.121-0.102-0.194-0.133s-0.152-0.047-0.231-0.047c-0.079 0-0.158 0.016-0.231 0.047s-0.139 0.076-0.194 0.133l-3.59 3.59c-0.24 0.23-0.24 0.61 0 0.85l1.752 1.752 0.616-0.616-1.57-1.564 3.22-3.21 1.564 1.563 0.612-0.611zM8.822 8.193l3.58 3.58c0.24 0.24 0.62 0.24 0.85-0.010l3.58-3.58c0.057-0.054 0.102-0.119 0.133-0.192s0.047-0.15 0.047-0.228h0.010c0-0.15-0.060-0.31-0.18-0.43l-3.58-3.58c-0.056-0.057-0.123-0.102-0.197-0.133s-0.153-0.047-0.233-0.047c-0.080 0-0.159 0.016-0.233 0.047s-0.141 0.076-0.197 0.133l-3.58 3.59c-0.24 0.23-0.24 0.61 0 0.85zM3.752 13.263l3.58 3.58c0.24 0.24 0.62 0.24 0.85 0l3.58-3.58c0.058-0.055 0.104-0.122 0.135-0.196s0.046-0.154 0.045-0.234h0.010c0-0.16-0.060-0.31-0.18-0.43l-3.58-3.58c-0.055-0.057-0.121-0.102-0.194-0.133s-0.151-0.047-0.231-0.047c-0.079 0-0.158 0.016-0.231 0.047s-0.139 0.076-0.194 0.133l-3.59 3.59c-0.24 0.23-0.24 0.61 0 0.85zM10.685 22.017l2.362 2.363 9.636-13.040-0.655-0.655-11.343 11.332z"></path>
</symbol>
<symbol id="coin" viewBox="0 0 32 32">
<path fill="#fd9222" style="fill: var(--color1, #fd9222)" d="M16 2.667c-7.333 0-13.333 6-13.333 13.333s6 13.333 13.333 13.333c7.333 0 13.333-6 13.333-13.333s-6-13.333-13.333-13.333zM16 26.667c-5.867 0-10.667-4.8-10.667-10.667s4.8-10.667 10.667-10.667c5.867 0 10.667 4.8 10.667 10.667s-4.8 10.667-10.667 10.667z"></path>
<path fill="#fd9222" style="fill: var(--color1, #fd9222)" d="M17.733 14.667h-3.467c-0.667 0-1.2-0.533-1.2-1.2s0.533-1.2 1.2-1.2h4.933c0.8 0 1.333-0.533 1.333-1.333s-0.533-1.333-1.333-1.333h-1.867v-1.2c0-0.8-0.533-1.333-1.333-1.333s-1.333 0.533-1.333 1.333v1.2h-0.4c-2.133 0-3.867 1.733-3.867 3.867s1.733 3.867 3.867 3.867h3.333c0.667 0 1.2 0.533 1.2 1.2s-0.533 1.2-1.2 1.2h-4.933c-0.8 0-1.333 0.533-1.333 1.333s0.533 1.333 1.333 1.333h2v1.2c0 0.8 0.533 1.333 1.333 1.333s1.333-0.533 1.333-1.333v-1.2h0.4c2.133 0 3.867-1.733 3.867-3.867s-1.733-3.867-3.867-3.867z"></path>
</symbol>
<symbol id="spoon" viewBox="0 0 32 32">
<path fill="#fd9222" style="fill: var(--color1, #fd9222)" d="M15.451 14.106c-0.783-0.95-1.177-2.116-1.177-3.282 0-4.324 5.181-8.642 10.362-8.642 2.86 0 5.181 2.321 5.181 5.182 0 5.182-4.318 10.364-8.646 10.364-1.166 0-2.331-0.394-3.281-1.177l-12.758 12.761c-0.675 0.675-1.77 0.675-2.445 0s-0.675-1.771 0-2.445l12.764-12.761z"></path>
</symbol>
 <symbol id="icon-x-close" viewBox="0 0 32 32">
 
      <path fill="none" stroke="#fff" stroke-linecap="round" stroke-linejoin="round" stroke-width="2.667" d="M24 8 8 24M8 8l16 16" style="stroke:var(--color1, #fff)"/>
    </symbol>
<!-- $$$$$$$$$$$$  UNIQUE COMPONENTS $$$$$$$$$$$$$$$$$ -->


<!-- $$$$$$$$$$$$  HOW ITS MADE? $$$$$$$$$$$$$$$$$ -->


<!-- $$$$$$$$$$$$  OUR PRODUCT $$$$$$$$$$$$$$$$$ -->


<!-- $$$$$$$$$$$$  TOP SELLERS $$$$$$$$$$$$$$$$$ -->


<!-- $$$$$$$$$$$$  REVIEWS $$$$$$$$$$$$$$$$$ -->


<!-- $$$$$$$$$$$$  SUBSCRIBE $$$$$$$$$$$$$$$$$ -->


<!-- $$$$$$$$$$$$  FOOTER $$$$$$$$$$$$$$$$$ -->

<symbol id="icon-twitter" viewBox="0 0 32 32">
<path d="M21.213 2.829c-1.684 0.189-3.165 0.937-4.282 2.050l0-0c-1.315 1.315-2.104 3.117-2.104 4.814v0.44h-0.21c-1.051 0-3.234-0.578-4.522-1.197-1.688-0.811-3.155-2.16-4.853-4.462-0.568-0.77-0.768-0.922-1.19-0.914-0.533 0.010-0.973 0.347-1.218 0.936-0.485 1.163-0.947 3.179-1.126 4.906-0.077 0.739-0.080 2.456-0.005 3.211 0.41 4.12 2.392 7.4 5.872 9.717 0.293 0.195 0.531 0.371 0.531 0.394 0 0.061-1.070 0.493-1.814 0.733-1.384 0.446-2.576 0.638-4.24 0.685-0.586 0.016-1.142 0.051-1.237 0.080-0.427 0.13-0.653 0.498-0.654 1.066-0.003 0.645 0.179 0.874 1.066 1.342 3.899 2.067 8.326 2.874 12.522 2.282 4.726-0.667 8.981-3.165 11.731-6.886 2.398-3.245 3.693-7.355 3.693-11.733v-0.989l0.354-0.424c1.018-1.241 1.795-2.721 2.237-4.34l0.019-0.083c0.141-0.541 0.139-0.75-0.010-1.045-0.176-0.349-0.515-0.541-1.018-0.573-0.442-0.027-0.466-0.019-1.195 0.451-0.557 0.366-1.2 0.719-1.871 1.020l-0.089 0.036c-0.784 0.341-0.747 0.341-1.123 0.035-1.236-0.989-2.823-1.587-4.549-1.587-0.252 0-0.501 0.013-0.746 0.038l0.031-0.003zM22.706 5.253c1.050 0.171 1.787 0.547 2.638 1.347 0.803 0.755 0.918 0.779 1.998 0.413 0.389-0.131 0.722-0.24 0.738-0.24 0.066 0-0.301 0.474-0.738 0.952-0.25 0.275-0.493 0.578-0.539 0.675-0.091 0.194-0.102 0.586-0.034 1.173 0.054 0.464-0.019 2.176-0.133 3.067-0.821 6.514-4.734 11.411-10.632 13.304-2.579 0.829-5.419 0.986-8.274 0.461-0.634-0.116-1.153-0.24-1.663-0.388l0.119 0.030c-0.045-0.016 0.205-0.11 0.555-0.211 1.57-0.454 3.934-1.598 4.712-2.282 0.259-0.256 0.424-0.607 0.438-0.996l0-0.003c0-0.525-0.179-0.702-1.264-1.24-1.493-0.742-2.578-1.488-3.526-2.429-1.925-1.904-2.878-4.146-3.078-7.234-0.064-0.978 0.064-2.317 0.387-4.093 0.016-0.080 0.043-0.147 0.062-0.147s0.24 0.235 0.491 0.52c1.142 1.301 2.496 2.366 3.891 3.059 1.886 0.939 3.667 1.403 5.928 1.546 1.382 0.088 1.886 0.006 2.168-0.352 0.182-0.234 0.213-0.435 0.24-1.678 0.030-1.288 0.082-1.648 0.333-2.275 0.259-0.65 0.554-1.083 1.115-1.645 0.608-0.61 1.053-0.888 1.819-1.144 0.835-0.278 1.403-0.326 2.246-0.19z"></path>
</symbol>
<symbol id="icon-instagram" viewBox="0 0 32 32">
<path d="M8.084 1.684c-2.968 0.505-5.335 2.635-6.173 5.426l-0.014 0.055c-0.304 1.050-0.297 0.838-0.297 8.835s-0.007 7.785 0.297 8.835c0.76 2.545 2.724 4.508 5.213 5.254l0.055 0.014c1.050 0.304 0.838 0.297 8.835 0.297s7.785 0.007 8.835-0.297c2.545-0.76 4.508-2.724 5.254-5.213l0.014-0.055c0.304-1.050 0.297-0.838 0.297-8.835s0.007-7.785-0.297-8.835c-0.76-2.545-2.724-4.508-5.213-5.254l-0.055-0.014c-1.053-0.304-0.826-0.297-8.9-0.291-5.911 0.006-7.514 0.022-7.85 0.079zM23.156 3.788c1.296 0.111 2.446 0.658 3.32 1.493l-0.002-0.002c0.969 0.905 1.612 2.15 1.737 3.544l0.002 0.021c0.073 0.768 0.073 13.545 0 14.313-0.111 1.296-0.658 2.446-1.493 3.32l0.002-0.002c-0.905 0.969-2.15 1.612-3.544 1.737l-0.021 0.002c-0.768 0.073-13.545 0.073-14.313 0-1.415-0.126-2.66-0.769-3.562-1.735l-0.003-0.003c-0.833-0.872-1.38-2.022-1.49-3.298l-0.001-0.020c-0.073-0.768-0.073-13.545 0-14.313 0.111-1.296 0.658-2.446 1.493-3.32l-0.002 0.002c0.913-0.972 2.189-1.61 3.468-1.734 0.676-0.065 13.724-0.070 14.41-0.004zM22.8 7.67c-0.384 0.183-0.561 0.502-0.559 1.008 0.003 0.698 0.401 1.088 1.104 1.078 0.735-0.009 1.081-0.356 1.081-1.084 0-0.452-0.127-0.748-0.401-0.934-0.266-0.18-0.913-0.215-1.225-0.068zM15.6 9.524c-0.883 0.077-1.694 0.315-2.428 0.684l0.038-0.018c-2.134 1.060-3.574 3.225-3.574 5.726 0 0.204 0.010 0.406 0.028 0.605l-0.002-0.025c0.091 1.128 0.468 2.152 1.058 3.020l-0.014-0.022c0.99 1.468 2.532 2.499 4.321 2.796l0.038 0.005c0.534 0.084 1.632 0.071 2.131-0.026 2.652-0.512 4.672-2.516 5.185-5.145 0.116-0.592 0.116-1.743 0.001-2.324-0.273-1.383-0.82-2.419-1.792-3.392-0.874-0.9-2.018-1.534-3.3-1.773l-0.038-0.006c-0.414-0.069-0.892-0.109-1.378-0.109-0.097 0-0.193 0.002-0.289 0.005l0.014-0zM16.851 11.793c0.809 0.127 1.599 0.556 2.243 1.216 1.956 2.009 1.42 5.377-1.062 6.665-0.72 0.372-1.094 0.46-1.978 0.46-0.662 0-0.832-0.019-1.174-0.125-1.381-0.424-2.448-1.485-2.872-2.832l-0.008-0.031c-0.169-0.532-0.207-1.516-0.081-2.086 0.217-0.992 0.835-1.955 1.604-2.505 1.018-0.726 2.052-0.963 3.328-0.762z"></path>
</symbol>   

<!-- $$$$$$$$$$$$  MODAL_BUY-NOW $$$$$$$$$$$$$$$$$ -->
<symbol id="icon-buy-now-close" viewBox="0 0 32 32">
<path stroke-linejoin="round" stroke-linecap="round" stroke-miterlimit="4" stroke-width="2.6667" d="M24 8l-16 16M8 8l16 16"></path>
</symbol>
<symbol id="icon-Frame" viewBox="0 0 40 32">
<path fill="#ffd700" style="fill: var(--color1, #ffd700)" d="M40.209 0.495h-39.902v29.694h39.902v-29.694z"></path>
<path fill="#0057b7" style="fill: var(--color2, #0057b7)" d="M0.307 0.495h39.902v14.848h-39.902v-14.848z"></path>
</symbol>
<symbol id="icon-Mastercard" viewBox="0 0 50 32">
<path fill="#ed0006" style="fill: var(--color1, #ed0006)" d="M25.143 28.078c-2.647 2.191-6.077 3.52-9.817 3.52-0.018 0-0.035-0-0.053-0h0.003c-8.4-0.002-15.207-6.599-15.207-14.729s6.807-14.725 15.207-14.725c3.767 0 7.211 1.323 9.867 3.518 2.647-2.191 6.077-3.52 9.817-3.52 0.018 0 0.035 0 0.053 0h-0.003c8.4 0 15.209 6.594 15.209 14.727s-6.809 14.727-15.209 14.727c-0.016 0-0.035 0-0.053 0-3.739 0-7.168-1.328-9.84-3.539l0.026 0.021z"></path>
<path fill="#f9a000" style="fill: var(--color2, #f9a000)" d="M25.143 28.078c3.269-2.702 5.344-6.72 5.344-11.209 0-4.487-2.073-8.507-5.344-11.207 2.647-2.191 6.077-3.52 9.817-3.52 0.018 0 0.035 0 0.053 0h-0.003c8.4 0 15.209 6.594 15.209 14.727s-6.809 14.727-15.209 14.727c-0.016 0-0.035 0-0.053 0-3.739 0-7.168-1.328-9.84-3.539l0.026 0.021z"></path>
<path fill="#ff5e00" style="fill: var(--color3, #ff5e00)" d="M25.143 28.078c3.269-2.702 5.344-6.72 5.344-11.209 0-4.487-2.073-8.507-5.344-11.207-3.269 2.699-5.344 6.72-5.344 11.207 0 4.489 2.073 8.507 5.344 11.209z"></path>
</symbol>
<!-- $$$$$$$$$$$$  MODAL_LEAVE-A-REVIEW  $$$$$$$$$$$$$$$$$ -->
<symbol id="icon-x-close" viewBox="0 0 32 32">
<path fill="#e2e2e2" style="fill: var(--color1, #e2e2e2)" d="M0 0h32v32h-32v-32z"></path>
<path fill="#fafafa" style="fill: var(--color2, #fafafa)" d="M-344-18.667h374.667c11.046 0 20 8.954 20 20v588c0 11.046-8.954 20-20 20h-374.667c-11.046 0-20-8.954-20-20v-588c0-11.046 8.954-20 20-20z"></path>
<path fill="none" stroke="#111" style="stroke: var(--color3, #111)" stroke-linejoin="round" stroke-linecap="round" stroke-miterlimit="4" stroke-width="2.6667" d="M24 8l-16 16"></path>
<path fill="none" stroke="#111" style="stroke: var(--color3, #111)" stroke-linejoin="round" stroke-linecap="round" stroke-miterlimit="4" stroke-width="2.6667" d="M8 8l16 16"></path>
</symbol>
<symbol id="icon-flag" viewBox="0 0 40 32">
<path fill="#ffd700" style="fill: var(--color1, #ffd700)" d="M40.209 0.495h-39.902v29.695h39.902v-29.695z"></path>
<path fill="#0057b7" style="fill: var(--color2, #0057b7)" d="M0.307 0.495h39.902v14.847h-39.902v-14.847z"></path>
</symbol>
<!-- $$$$$$$$$$$$  MODAL_EXPLORE-OUR-NEW $$$$$$$$$$$$$$$$$ -->


<!-- $$$$$$$$$$$$  MODAL_THANK-YOU $$$$$$$$$$$$$$$$$ -->
<symbol id="icon-buy-thanks-close" viewBox="0 0 32 32">
<path fill="#fcf1e0" style="fill: var(--color1, #fcf1e0)" d="M32 16c0 8.837-7.163 16-16 16s-16-7.163-16-16c0-8.837 7.163-16 16-16s16 7.163 16 16z"></path>
<path fill="none" stroke="#F16529" style="stroke: var()" stroke-linejoin="round" stroke-linecap="round" stroke-miterlimit="4" stroke-width="1.7143" d="M20.571 11.429l-9.143 9.143"></path>
<path fill="none" stroke="#F16529" style="stroke: var()" stroke-linejoin="round" stroke-linecap="round" stroke-miterlimit="4" stroke-width="1.7143" d="M11.429 11.429l9.143 9.143"></path>
</symbol>


<!-- $$$$$$$$$$$$  MODAL_THANK-YOU-FEEDBACK $$$$$$$$$$$$$$$$$ -->
<symbol id="icon-x-round-close" viewBox="0 0 32 32">
<path fill="#fcf1e0" style="fill: var(--color1, #fcf1e0)" d="M32 16c0 8.837-7.163 16-16 16s-16-7.163-16-16c0-8.837 7.163-16 16-16s16 7.163 16 16z"></path>
<path fill="none" stroke="#000" style="stroke: var(--color2, #000)" stroke-linejoin="round" stroke-linecap="round" stroke-miterlimit="4" stroke-width="1.7143" d="M20.571 11.429l-9.143 9.143"></path>
<path fill="none" stroke="#000" style="stroke: var(--color2, #000)" stroke-linejoin="round" stroke-linecap="round" stroke-miterlimit="4" stroke-width="1.7143" d="M11.429 11.429l9.143 9.143"></path>
</symbol>

</defs>
</svg>